
                                 $$TheAaax9$$
                                --------------

++++++++++++++++++++++++++++++++++++++++++++++++++++++++++++++++++++++++++

Present by TheAaax9
--------------------
screenshots All in one:-
------------------------
 
http://shareimage.org/images/59v3gxgry9426axkh9u.jpg

==========================================================================

General
Complete name                    : yamla pagla deewana (2011) New Scam_TheAaax9
Format                           : AVI
Format/Info                      : Audio Video Interleave
Format profile                   : OpenDML
File size                        : 706 MiB
Duration                         : 2h 37mn
Overall bit rate                 : 626 Kbps
Writing application              : AVI-Mux GUI 1.17.8.3, Feb 16 201019:42:50

Video
ID                               : 0
Format                           : MPEG-4 Visual
Format profile                   : AdvancedSimple@L5
Format settings, BVOP            : Yes
Format settings, QPel            : No
Format settings, GMC             : No warppoints
Format settings, Matrix          : Default (H.263)
Codec ID                         : XVID
Codec ID/Hint                    : XviD
Duration                         : 2h 37mn
Bit rate                         : 495 Kbps
Width                            : 576 pixels
Height                           : 240 pixels
Display aspect ratio             : 2.40:1
Frame rate                       : 25.000 fps
Resolution                       : 24 bits
Colorimetry                      : 4:2:0
Scan type                        : Progressive
Bits/(Pixel*Frame)               : 0.143
Stream size                      : 557 MiB (79%)
Writing library                  : XviD 1.2.1 (UTC 2008-12-04)
==========================================================================

Audio
ID                               : 1
Format                           : MPEG Audio
Format version                   : Version 1
Format profile                   : Layer 3
Codec ID                         : 55
Codec ID/Hint                    : MP3
Duration                         : 2h 37mn
Bit rate mode                    : Constant
Bit rate                         : 128 Kbps
Channel(s)                       : 2 channels
Sampling rate                    : 48.0 KHz
Resolution                       : 16 bits
Stream size                      : 144 MiB (20%)
Alignment                        : Aligned on interleaves
Interleave, duration             : 1143 ms (28.58 video frames)
Interleave, preload duration     : 216 ms
Title                            : YAMLA PAGLA DEEWANA Tc0 L2 2ch 48 64 DELA
Writing library                  : LAME3.98r
Encoding settings                : -m j -V 4 -q 2 -lowpass 17 -b 128

+++++++++++++++++++++++++++++++++++++++++++++++++++++++++++++++++++++++++++

                                 $$TheAaax9$$
                                --------------